<?xml version="1.0" encoding="UTF-8" standalone="no"?>
<!DOCTYPE svg PUBLIC "-//W3C//DTD SVG 1.1//EN" "http://www.w3.org/Graphics/SVG/1.1/DTD/svg11.dtd">
<svg width="100%" height="100%" viewBox="0 0 81 68" version="1.1" xmlns="http://www.w3.org/2000/svg" xmlns:xlink="http://www.w3.org/1999/xlink" xml:space="preserve" style="fill-rule:evenodd;clip-rule:evenodd;stroke-linejoin:round;stroke-miterlimit:1.41421;">
    <g transform="matrix(1,0,0,1,-458.65,-508.859)">
        <path d="M532.508,531.184C528.658,527.362 523.273,524.641 517.342,523.522C516.627,523.386 515.936,523.858 515.801,524.572C515.666,525.289 516.137,525.977 516.853,526.114C528.146,528.247 536.032,536.094 536.032,545.2C536.032,552.697 530.695,559.435 522.102,562.786C521.663,562.958 521.349,563.349 521.278,563.815C520.757,567.2 521.467,570.646 523.206,573.516C519.411,572.501 516.335,569.587 515.14,565.639C514.959,565.041 514.384,564.654 513.763,564.708C512.831,564.789 511.893,564.83 510.972,564.83C502.767,564.83 495.065,561.663 490.368,556.361C489.885,555.816 489.051,555.765 488.507,556.249C487.96,556.731 487.909,557.565 488.394,558.109C493.582,563.969 502.023,567.467 510.972,567.467C511.63,567.467 512.295,567.448 512.962,567.409C513.917,569.876 515.563,572.071 517.669,573.67C520.146,575.549 523.097,576.543 526.2,576.543C526.734,576.543 527.214,576.223 527.419,575.731C527.624,575.239 527.513,574.672 527.139,574.294C524.706,571.839 523.485,568.39 523.796,564.943C528.056,563.155 531.667,560.506 534.276,557.248C537.151,553.659 538.671,549.49 538.671,545.197C538.67,540.104 536.481,535.126 532.508,531.184Z" style="fill:white;fill-rule:nonzero;"/>
        <path d="M514.049,531.129C514.049,525.122 511.128,519.494 505.823,515.282C500.609,511.14 493.691,508.859 486.349,508.859C479.006,508.859 472.09,511.14 466.875,515.282C461.571,519.494 458.65,525.122 458.65,531.129C458.65,535.425 460.17,539.593 463.045,543.181C465.653,546.439 469.266,549.088 473.524,550.877C473.836,554.323 472.614,557.772 470.182,560.227C469.807,560.605 469.696,561.171 469.901,561.663C470.106,562.155 470.587,562.476 471.12,562.476C474.225,562.476 477.175,561.483 479.651,559.604C481.758,558.004 483.403,555.809 484.359,553.342C485.026,553.38 485.692,553.399 486.348,553.399C493.69,553.399 500.608,551.118 505.822,546.978C511.128,542.764 514.049,537.136 514.049,531.129ZM483.56,550.639C482.938,550.584 482.365,550.973 482.183,551.571C480.987,555.519 477.912,558.431 474.115,559.446C475.854,556.577 476.566,553.13 476.044,549.745C475.974,549.279 475.659,548.888 475.22,548.717C466.628,545.367 461.29,538.629 461.29,531.13C461.29,520.305 472.532,511.498 486.351,511.498C500.17,511.498 511.412,520.305 511.412,531.13C511.412,541.954 500.171,550.761 486.351,550.761C485.43,550.76 484.49,550.719 483.56,550.639Z" style="fill:white;fill-rule:nonzero;"/>
    </g>
</svg>
