<?xml version="1.0" encoding="UTF-8" standalone="no"?>
<!DOCTYPE svg PUBLIC "-//W3C//DTD SVG 1.1//EN" "http://www.w3.org/Graphics/SVG/1.1/DTD/svg11.dtd">
<svg width="100%" height="100%" viewBox="0 0 71 71" version="1.1" xmlns="http://www.w3.org/2000/svg" xmlns:xlink="http://www.w3.org/1999/xlink" xml:space="preserve" style="fill-rule:evenodd;clip-rule:evenodd;stroke-linejoin:round;stroke-miterlimit:1.41421;">
    <g transform="matrix(1,0,0,1,-198.595,-623.917)">
        <path d="M266.403,636.68C269.154,633.924 269.466,629.507 267.111,626.623C265.798,625.013 263.852,624.03 261.775,623.926C259.705,623.825 257.659,624.599 256.194,626.063L249.697,632.562C248.325,633.934 245.931,633.934 244.56,632.562L243.845,631.846C242.784,630.788 241.058,630.789 239.998,631.846L235.168,636.678C234.109,637.737 234.108,639.463 235.168,640.525L237.583,642.94L211.697,668.83C209.78,670.746 208.35,673.126 207.532,675.809C206.857,678.014 205.64,680.039 204.008,681.673L198.595,687.087L205.534,694.026L210.902,688.659C212.562,687 214.627,685.772 216.878,685.104C219.518,684.318 221.942,682.876 223.89,680.929L249.733,655.085L252.147,657.5C252.662,658.015 253.345,658.296 254.071,658.296C254.798,658.296 255.48,658.015 255.994,657.5L260.824,652.671C261.338,652.156 261.621,651.472 261.62,650.747C261.62,650.02 261.336,649.337 260.824,648.825L260.11,648.11C258.695,646.695 258.695,644.391 260.11,642.974L266.403,636.68ZM222.155,679.192C220.495,680.85 218.429,682.081 216.18,682.748C213.539,683.532 211.114,684.976 209.167,686.923L205.534,690.554L202.065,687.084L205.743,683.405C207.659,681.488 209.089,679.107 209.908,676.426C210.582,674.223 211.8,672.196 213.432,670.563L239.322,644.67L247.997,653.347L222.155,679.192ZM258.375,649.844L259.091,650.56C259.154,650.624 259.168,650.697 259.168,650.748C259.168,650.796 259.154,650.87 259.091,650.936L254.261,655.765C254.16,655.868 253.989,655.869 253.883,655.765L251.469,653.35L239.323,641.205L236.91,638.791C236.805,638.685 236.805,638.517 236.909,638.411L241.737,633.583C241.79,633.53 241.858,633.505 241.927,633.505C241.995,633.505 242.063,633.53 242.115,633.582L242.829,634.296C243.979,635.445 245.505,636.079 247.133,636.079C248.758,636.079 250.286,635.445 251.436,634.296L257.933,627.798C258.908,626.824 260.249,626.301 261.655,626.377C263.061,626.446 264.323,627.085 265.213,628.176C266.781,630.096 266.542,633.07 264.67,634.946L258.376,641.239C256.003,643.61 256.003,647.471 258.375,649.844Z" style="fill:white;fill-rule:nonzero;"/>
        <path d="M235.937,651.267L223.791,663.413C223.311,663.892 223.311,664.668 223.791,665.147C224.03,665.387 224.343,665.506 224.659,665.506C224.972,665.506 225.287,665.387 225.525,665.147L237.671,653.002C238.152,652.522 238.152,651.746 237.671,651.266C237.191,650.788 236.417,650.788 235.937,651.267Z" style="fill:white;fill-rule:nonzero;"/>
        <circle cx="220.854" cy="668.084" r="1.227" style="fill:white;"/>
    </g>
</svg>
