<?xml version="1.0" encoding="UTF-8" standalone="no"?>
<!DOCTYPE svg PUBLIC "-//W3C//DTD SVG 1.1//EN" "http://www.w3.org/Graphics/SVG/1.1/DTD/svg11.dtd">
<svg width="100%" height="100%" viewBox="0 0 121 57" version="1.1" xmlns="http://www.w3.org/2000/svg" xmlns:xlink="http://www.w3.org/1999/xlink" xml:space="preserve" style="fill-rule:evenodd;clip-rule:evenodd;stroke-linejoin:round;stroke-miterlimit:1.41421;">
    <g transform="matrix(1,0,0,1,-23.071,-634.002)">
        <g>
            <path d="M126.604,690.938L59.43,690.938C57.661,690.938 56.119,690.24 55.086,688.974C54.056,687.712 53.684,686.057 54.043,684.326L63.149,640.091C63.843,636.733 67.193,634.002 70.619,634.002L137.794,634.002C139.566,634.002 141.106,634.699 142.138,635.965C143.168,637.228 143.54,638.881 143.181,640.613L134.076,684.847C133.383,688.205 130.031,690.938 126.604,690.938ZM70.619,636.585C68.394,636.585 66.129,638.431 65.676,640.616L56.571,684.847C56.374,685.805 56.559,686.695 57.09,687.345C57.622,687.998 58.452,688.358 59.43,688.358L126.605,688.358C128.834,688.358 131.096,686.513 131.547,684.329L140.653,640.094C140.85,639.136 140.666,638.248 140.134,637.598C139.606,636.944 138.773,636.585 137.794,636.585L70.619,636.585Z" style="fill:white;fill-rule:nonzero;"/>
            <path d="M97.875,668.976C95.935,668.976 93.993,668.239 92.64,666.81L67.118,639.906C66.628,639.389 66.645,638.571 67.167,638.083C67.68,637.596 68.501,637.611 68.99,638.132L94.512,665.035C96.02,666.611 98.774,666.864 100.529,665.57L138.059,637.978C138.629,637.555 139.438,637.674 139.865,638.253C140.285,638.829 140.161,639.635 139.589,640.059L102.055,667.649C100.842,668.543 99.36,668.976 97.875,668.976Z" style="fill:white;fill-rule:nonzero;"/>
        </g>
        <path d="M54.266,643.665L37.275,643.665C36.563,643.665 35.984,643.088 35.984,642.374C35.984,641.661 36.563,641.082 37.275,641.082L54.266,641.082C54.978,641.082 55.556,641.661 55.556,642.374C55.556,643.088 54.978,643.665 54.266,643.665Z" style="fill:white;fill-rule:nonzero;"/>
        <path d="M50.822,660.884L24.362,660.884C23.65,660.884 23.071,660.305 23.071,659.592C23.071,658.88 23.65,658.302 24.362,658.302L50.821,658.302C51.534,658.302 52.113,658.88 52.113,659.592C52.114,660.305 51.535,660.884 50.822,660.884Z" style="fill:white;fill-rule:nonzero;"/>
        <path d="M46.518,676.377L33.618,676.377C32.905,676.377 32.326,675.799 32.326,675.086C32.326,674.373 32.905,673.795 33.618,673.795L46.518,673.795C47.23,673.795 47.808,674.373 47.808,675.086C47.808,675.799 47.23,676.377 46.518,676.377Z" style="fill:white;fill-rule:nonzero;"/>
    </g>
</svg>
