<?xml version="1.0" encoding="UTF-8" standalone="no"?>
<!DOCTYPE svg PUBLIC "-//W3C//DTD SVG 1.1//EN" "http://www.w3.org/Graphics/SVG/1.1/DTD/svg11.dtd">
<svg width="100%" height="100%" viewBox="0 0 60 60" version="1.1" xmlns="http://www.w3.org/2000/svg" xmlns:xlink="http://www.w3.org/1999/xlink" xml:space="preserve" style="fill-rule:evenodd;clip-rule:evenodd;stroke-linejoin:round;stroke-miterlimit:1.41421;">
    <g transform="matrix(1,0,0,1,-52.692,-510.066)">
        <path d="M104.246,510.066L60.72,510.066C56.285,510.066 52.692,513.661 52.692,518.095L52.692,561.621C52.692,566.056 56.285,569.65 60.72,569.65L82.187,569.65L82.224,548.359L76.693,548.359C75.973,548.359 75.389,547.777 75.388,547.058L75.361,540.195C75.358,539.47 75.943,538.883 76.666,538.883L82.188,538.883L82.188,532.252C82.188,524.555 86.889,520.365 93.754,520.365L99.387,520.365C100.108,520.365 100.693,520.95 100.693,521.669L100.693,527.457C100.693,528.178 100.108,528.762 99.388,528.762L95.931,528.765C92.197,528.765 91.473,530.538 91.473,533.142L91.473,538.883L99.678,538.883C100.459,538.883 101.066,539.567 100.974,540.342L100.161,547.206C100.083,547.863 99.526,548.358 98.864,548.358L91.51,548.358L91.473,569.65L104.246,569.65C108.681,569.65 112.276,566.054 112.276,561.62L112.276,518.094C112.276,513.661 108.682,510.066 104.246,510.066Z" style="fill:white;fill-rule:nonzero;"/>
    </g>
</svg>
