<?xml version="1.0" encoding="UTF-8" standalone="no"?>
<!DOCTYPE svg PUBLIC "-//W3C//DTD SVG 1.1//EN" "http://www.w3.org/Graphics/SVG/1.1/DTD/svg11.dtd">
<svg width="100%" height="100%" viewBox="0 0 83 117" version="1.1" xmlns="http://www.w3.org/2000/svg" xmlns:xlink="http://www.w3.org/1999/xlink" xml:space="preserve" style="fill-rule:evenodd;clip-rule:evenodd;stroke-linejoin:round;stroke-miterlimit:1.41421;">
    <g transform="matrix(1,0,0,1,-193.742,-341.19)">
        <g>
            <rect x="231.291" y="402.643" width="3.223" height="3.46" style="fill:white;"/>
            <rect x="272.762" y="386.258" width="3.223" height="3.459" style="fill:white;"/>
            <rect x="196.19" y="372.479" width="3.223" height="3.459" style="fill:white;"/>
            <rect x="208.152" y="354.233" width="3.224" height="3.459" style="fill:white;"/>
            <rect x="237.27" y="412.063" width="3.223" height="3.46" style="fill:white;"/>
            <path d="M266.48,363.483L266.48,360.024L263.02,360.024L263.02,363.483L259.561,363.483L259.561,366.943L263.02,366.943L263.02,370.403L266.48,370.403L266.48,366.943L269.94,366.943L269.94,363.483L266.48,363.483Z" style="fill:white;fill-rule:nonzero;"/>
            <path d="M199.533,402.642L199.533,400.311L196.073,400.311L196.073,402.642L193.742,402.642L193.742,406.103L196.073,406.103L196.073,408.434L199.533,408.434L199.533,406.103L201.863,406.103L201.863,402.642L199.533,402.642Z" style="fill:white;fill-rule:nonzero;"/>
            <path d="M270.915,437.039L261.363,421.153L249.734,401.81L249.674,401.719C246.902,397.699 245.436,392.994 245.436,388.111L245.436,350.918L248.204,350.918L248.204,341.19L219.139,341.19L219.139,350.918L221.907,350.918L221.907,388.111C221.907,392.995 220.441,397.699 217.669,401.719L206.562,420.188L206.561,420.188L196.429,437.039C193.864,441.304 193.796,446.435 196.246,450.766C198.696,455.097 203.129,457.683 208.104,457.683L259.241,457.683C264.216,457.683 268.65,455.097 271.099,450.766C273.546,446.435 273.479,441.304 270.915,437.039ZM222.599,344.65L244.744,344.65L244.744,347.458L222.599,347.458L222.599,344.65ZM220.547,403.637C223.701,399.048 225.366,393.68 225.366,388.11L225.366,350.917L241.975,350.917L241.975,354.232L237.056,354.232L237.056,357.691L241.975,357.691L241.975,362.15L234.057,362.15L234.057,365.61L241.975,365.61L241.975,370.069L237.056,370.069L237.056,373.529L241.975,373.529L241.975,377.989L234.057,377.989L234.057,381.449L241.975,381.449L241.975,385.907L237.056,385.907L237.056,389.367L242.007,389.367C242.238,394.484 243.88,399.392 246.795,403.635L256.745,420.184L210.598,420.184L220.547,403.637ZM268.086,449.063C266.258,452.292 262.951,454.222 259.239,454.222L208.103,454.222C204.391,454.222 201.084,452.292 199.257,449.063C197.429,445.831 197.481,442.001 199.394,438.822L208.518,423.646L258.825,423.646L267.95,438.822C269.862,442.004 269.913,445.832 268.086,449.063Z" style="fill:white;fill-rule:nonzero;"/>
        </g>
    </g>
</svg>
