<?xml version="1.0" encoding="UTF-8" standalone="no"?>
<!DOCTYPE svg PUBLIC "-//W3C//DTD SVG 1.1//EN" "http://www.w3.org/Graphics/SVG/1.1/DTD/svg11.dtd">
<svg width="100%" height="100%" viewBox="0 0 117 82" version="1.1" xmlns="http://www.w3.org/2000/svg" xmlns:xlink="http://www.w3.org/1999/xlink" xml:space="preserve" style="fill-rule:evenodd;clip-rule:evenodd;stroke-linejoin:round;stroke-miterlimit:1.41421;">
    <g transform="matrix(1,0,0,1,-36.985,-354.741)">
        <g>
            <rect x="100.016" y="421.721" width="3.223" height="3.46" style="fill:white;"/>
            <rect x="57.352" y="358.661" width="3.223" height="3.46" style="fill:white;"/>
            <rect x="123.459" y="360.289" width="3.224" height="3.46" style="fill:white;"/>
            <rect x="81.754" y="430.061" width="3.224" height="3.461" style="fill:white;"/>
            <path d="M110.321,392.625L106.862,392.727C106.978,396.688 108.458,400.534 111.028,403.554C113.568,406.539 117.07,408.608 120.892,409.381L121.577,405.989C115.142,404.688 110.513,399.193 110.321,392.625Z" style="fill:white;fill-rule:nonzero;"/>
            <path d="M53.029,392.625L49.571,392.727C49.687,396.688 51.166,400.534 53.736,403.554C56.275,406.539 59.778,408.608 63.6,409.381L64.285,405.989C57.852,404.688 53.223,399.193 53.029,392.625Z" style="fill:white;fill-rule:nonzero;"/>
            <path d="M149.792,387.597L146.084,387.597C143.771,377.367 134.608,369.703 123.688,369.703C112.071,369.703 102.441,378.377 100.936,389.589C99.632,389.054 97.803,388.663 95.232,388.663C92.663,388.663 90.833,389.055 89.53,389.588C88.023,378.377 78.394,369.703 66.778,369.703C55.858,369.703 46.695,377.366 44.382,387.597L40.672,387.597C38.639,387.597 36.985,389.251 36.985,391.284L36.985,394.631C36.985,396.663 38.639,398.318 40.672,398.318L44.523,398.318C47.048,408.253 56.068,415.623 66.778,415.623C79.152,415.623 89.27,405.783 89.719,393.517C90.006,393.184 91.233,392.125 95.233,392.125C99.235,392.125 100.461,393.184 100.747,393.518C101.198,405.784 111.315,415.623 123.689,415.623C134.398,415.623 143.418,408.252 145.943,398.318L149.792,398.318C151.825,398.318 153.479,396.665 153.479,394.631L153.479,391.284C153.478,389.251 151.824,387.597 149.792,387.597ZM43.818,394.856L40.671,394.856C40.546,394.856 40.445,394.755 40.445,394.629L40.445,391.282C40.445,391.157 40.546,391.055 40.671,391.055L43.818,391.055L43.818,394.856ZM66.776,412.162C56.025,412.162 47.277,403.415 47.277,392.663C47.277,381.911 56.025,373.163 66.776,373.163C77.528,373.163 86.276,381.911 86.276,392.663C86.276,403.415 77.528,412.162 66.776,412.162ZM143.186,392.725C143.152,403.448 134.419,412.162 123.688,412.162C112.936,412.162 104.189,403.415 104.189,392.663C104.189,381.911 112.936,373.163 123.688,373.163C134.419,373.163 143.151,381.877 143.186,392.6L143.186,392.725ZM150.018,394.63C150.018,394.755 149.917,394.856 149.792,394.856L146.646,394.856L146.646,392.786C146.646,392.745 146.647,392.704 146.647,392.662C146.647,392.62 146.646,392.579 146.646,392.538L146.646,391.057L149.792,391.057C149.917,391.057 150.018,391.158 150.018,391.284L150.018,394.63Z" style="fill:white;fill-rule:nonzero;"/>
            <path d="M104.152,358.662L104.152,354.741L100.691,354.741L100.691,358.662L96.77,358.662L96.77,362.122L100.691,362.122L100.691,366.043L104.152,366.043L104.152,362.122L108.073,362.122L108.073,358.662L104.152,358.662Z" style="fill:white;fill-rule:nonzero;"/>
            <path d="M63.202,430.185L63.202,427.372L59.741,427.372L59.741,430.185L56.929,430.185L56.929,433.645L59.741,433.645L59.741,436.457L63.202,436.457L63.202,433.645L66.014,433.645L66.014,430.185L63.202,430.185Z" style="fill:white;fill-rule:nonzero;"/>
            <path d="M133.93,419.983L133.93,418.047L130.47,418.047L130.47,419.983L128.533,419.983L128.533,423.443L130.47,423.443L130.47,425.379L133.93,425.379L133.93,423.443L135.866,423.443L135.866,419.983L133.93,419.983Z" style="fill:white;fill-rule:nonzero;"/>
        </g>
    </g>
</svg>
