<?xml version="1.0" encoding="UTF-8" standalone="no"?>
<!DOCTYPE svg PUBLIC "-//W3C//DTD SVG 1.1//EN" "http://www.w3.org/Graphics/SVG/1.1/DTD/svg11.dtd">
<svg width="100%" height="100%" viewBox="0 0 55 55" version="1.1" xmlns="http://www.w3.org/2000/svg" xmlns:xlink="http://www.w3.org/1999/xlink" xml:space="preserve" style="fill-rule:evenodd;clip-rule:evenodd;stroke-linejoin:round;stroke-miterlimit:1.41421;">
    <g transform="matrix(1,0,0,1,-372.591,-512.791)">
        <path d="M410.707,512.791L388.765,512.791C379.846,512.791 372.591,520.047 372.591,528.964L372.591,550.907C372.591,559.825 379.846,567.081 388.765,567.081L410.707,567.081C419.625,567.081 426.881,559.825 426.881,550.907L426.881,528.964C426.881,520.047 419.625,512.791 410.707,512.791ZM421.419,550.907C421.419,556.822 416.623,561.619 410.707,561.619L388.765,561.619C382.849,561.619 378.054,556.822 378.054,550.907L378.054,528.964C378.054,523.049 382.849,518.252 388.765,518.252L410.707,518.252C416.623,518.252 421.419,523.049 421.419,528.964L421.419,550.907Z" style="fill:white;fill-rule:nonzero;"/>
        <path d="M399.737,525.894C391.993,525.894 385.695,532.194 385.695,539.936C385.695,547.678 391.993,553.977 399.737,553.977C407.479,553.977 413.776,547.678 413.776,539.936C413.776,532.194 407.479,525.894 399.737,525.894ZM399.737,548.516C394.998,548.516 391.156,544.675 391.156,539.936C391.156,535.198 394.998,531.356 399.737,531.356C404.475,531.356 408.315,535.198 408.315,539.936C408.315,544.675 404.475,548.516 399.737,548.516Z" style="fill:white;fill-rule:nonzero;"/>
        <circle cx="413.805" cy="526" r="3.365" style="fill:white;"/>
    </g>
</svg>
