<?xml version="1.0" encoding="UTF-8" standalone="no"?>
<!DOCTYPE svg PUBLIC "-//W3C//DTD SVG 1.1//EN" "http://www.w3.org/Graphics/SVG/1.1/DTD/svg11.dtd">
<svg width="100%" height="100%" viewBox="0 0 52 52" version="1.1" xmlns="http://www.w3.org/2000/svg" xmlns:xlink="http://www.w3.org/1999/xlink" xml:space="preserve" style="fill-rule:evenodd;clip-rule:evenodd;stroke-linejoin:round;stroke-miterlimit:1.41421;">
    <path d="M51.911,16.242C51.152,7.888 45.239,1.827 37.839,1.827C32.909,1.827 28.395,4.48 25.855,8.732C23.338,4.425 19.009,1.826 14.158,1.826C6.759,1.826 0.845,7.887 0.087,16.241C0.027,16.61 -0.219,18.552 0.529,21.719C1.607,26.287 4.097,30.442 7.728,33.732L25.843,50.171L44.269,33.733C47.9,30.442 50.39,26.288 51.468,21.719C52.216,18.553 51.97,16.611 51.911,16.242ZM49.521,21.261C48.537,25.433 46.256,29.234 42.931,32.246L25.855,47.481L9.072,32.25C5.741,29.232 3.461,25.432 2.476,21.26C1.768,18.263 2.059,16.57 2.06,16.559L2.075,16.458C2.725,9.139 7.806,3.826 14.158,3.826C18.845,3.826 22.971,6.706 24.929,11.341L25.85,13.524L26.771,11.341C28.698,6.777 33.042,3.827 37.84,3.827C44.191,3.827 49.273,9.14 49.936,16.554C49.938,16.57 50.229,18.264 49.521,21.261Z" style="fill:rgb(1,179,227);fill-rule:nonzero;"/>
</svg>
