<?xml version="1.0" encoding="UTF-8" standalone="no"?>
<!DOCTYPE svg PUBLIC "-//W3C//DTD SVG 1.1//EN" "http://www.w3.org/Graphics/SVG/1.1/DTD/svg11.dtd">
<svg width="100%" height="100%" viewBox="0 0 251 38" version="1.1" xmlns="http://www.w3.org/2000/svg" xmlns:xlink="http://www.w3.org/1999/xlink" xml:space="preserve" style="fill-rule:evenodd;clip-rule:evenodd;stroke-linejoin:round;stroke-miterlimit:1.41421;">
    <g transform="matrix(1,0,0,1,-307.416,-261.741)">
        <path d="M431.366,275.768L434.196,275.768L431.079,293.47L428.249,293.47L431.366,275.768ZM433.874,269.368C434.877,269.368 435.558,270.049 435.558,270.968C435.558,272.125 434.448,273.078 433.229,273.078C432.262,273.078 431.617,272.397 431.617,271.478C431.616,270.321 432.691,269.368 433.874,269.368Z" style="fill:white;fill-rule:nonzero;"/>
        <path d="M452.79,282.406L450.855,293.47L448.024,293.47L449.995,282.304C450.497,279.479 448.921,277.777 446.377,277.777C443.511,277.777 441.182,279.785 440.68,282.713L438.782,293.47L435.952,293.47L439.069,275.768L441.863,275.768L441.397,278.321C442.58,276.721 444.909,275.325 447.488,275.325C451.822,275.326 453.507,278.39 452.79,282.406Z" style="fill:white;fill-rule:nonzero;"/>
        <path d="M326.875,275.118L324.006,275.118L324.55,271.803L327.42,271.803L327.667,270.467C328.855,263.985 332.962,261.906 337.119,261.906C337.96,261.906 338.752,262.005 338.752,262.005L338.207,265.42C338.207,265.42 337.564,265.321 336.971,265.321C334.051,265.321 332.27,266.904 331.626,270.467L331.379,271.803L336.871,271.803L336.327,275.118L330.834,275.118L327.073,297.535L323.114,297.535L326.875,275.118Z" style="fill:white;fill-rule:nonzero;"/>
        <path d="M352.162,275.069C346.719,275.069 343.898,279.127 342.859,285.213L340.781,297.535L336.872,297.535L341.177,271.803L345.037,271.803L344.294,276.108C345.631,273.535 348.897,271.16 352.806,271.16L352.162,275.069Z" style="fill:white;fill-rule:nonzero;"/>
        <path d="M368.396,271.16C375.324,271.16 379.777,276.009 379.777,282.64C379.777,291.349 372.454,298.178 363.843,298.178C356.965,298.178 352.461,293.378 352.461,286.747C352.461,277.939 359.884,271.16 368.396,271.16ZM364.437,294.615C370.672,294.615 375.769,289.568 375.769,283.085C375.769,278.285 372.651,274.722 367.752,274.722C361.517,274.722 356.519,279.868 356.519,286.301C356.519,291.151 359.587,294.615 364.437,294.615Z" style="fill:white;fill-rule:nonzero;"/>
        <path d="M405.659,281.452L402.987,297.535L399.078,297.535L401.8,281.304C402.492,277.197 400.316,274.723 396.802,274.723C392.843,274.723 389.627,277.642 388.934,281.898L386.312,297.535L382.403,297.535L386.708,271.803L390.568,271.803L389.924,275.514C391.557,273.188 394.774,271.16 398.336,271.16C404.323,271.16 406.649,275.613 405.659,281.452Z" style="fill:white;fill-rule:nonzero;"/>
        <path d="M415.162,266.409L418.973,266.409L418.033,271.803L423.675,271.803L423.13,275.118L417.489,275.118L415.262,288.38C414.47,293.18 415.707,294.318 418.825,294.318C419.32,294.318 420.111,294.219 420.111,294.219L419.517,297.732C419.517,297.732 418.478,297.88 417.142,297.88C412.441,297.88 410.363,295.01 411.303,289.22L413.579,275.117L410.56,275.117L411.104,271.802L414.222,271.802L415.162,266.409Z" style="fill:white;fill-rule:nonzero;"/>
        <path d="M459.621,288.481L462.356,272.022L466.357,272.022L463.572,288.633C462.863,292.837 465.141,295.369 468.686,295.369C472.738,295.369 476.03,292.381 476.739,288.025L479.424,272.022L483.475,272.022L479.069,298.357L475.069,298.357L475.727,294.559C474.106,296.939 470.764,299.016 467.168,299.016C461.04,299.015 458.608,294.457 459.621,288.481Z" style="fill:white;fill-rule:nonzero;"/>
        <path d="M509.807,298.356L505.908,298.356L506.617,294.203C505.807,295.165 502.414,299.014 496.691,299.014C490.056,299.014 485.904,294.304 485.904,287.569C485.904,278.453 492.386,271.363 500.945,271.363C506.415,271.363 508.947,274.908 509.453,276.276L511.885,261.741L515.936,261.741L509.807,298.356ZM500.894,275.01C495.02,275.01 490.056,280.226 490.056,287.114C490.056,292.128 493.044,295.42 497.501,295.42C503.78,295.42 508.339,289.799 508.339,283.367C508.339,278.099 505.198,275.01 500.894,275.01Z" style="fill:white;fill-rule:nonzero;"/>
        <path d="M521.098,272.021L525.099,272.021L520.693,298.356L516.692,298.356L521.098,272.021ZM524.643,262.5C526.061,262.5 527.024,263.513 527.024,264.88C527.024,266.602 525.454,268.02 523.732,268.02C522.365,268.02 521.453,267.007 521.453,265.64C521.452,263.918 522.972,262.5 524.643,262.5Z" style="fill:white;fill-rule:nonzero;"/>
        <path d="M318.027,288.145L310.881,282.368L318.027,276.587C318.565,276.056 318.565,275.201 318.027,274.671C317.483,274.145 316.602,274.145 316.064,274.671L307.814,281.341C307.525,281.622 307.398,281.998 307.418,282.368C307.398,282.739 307.525,283.108 307.814,283.389L316.064,290.06C316.602,290.591 317.483,290.591 318.027,290.06C318.565,289.529 318.565,288.675 318.027,288.145Z" style="fill:white;"/>
        <path d="M547.697,278.204L554.793,284.044L547.595,289.762C547.052,290.287 547.044,291.143 547.577,291.677C548.117,292.208 548.998,292.217 549.54,291.694L557.85,285.099C558.142,284.82 558.273,284.446 558.256,284.075C558.278,283.705 558.154,283.334 557.868,283.05L549.677,276.305C549.145,275.77 548.264,275.762 547.715,276.288C547.172,276.815 547.164,277.669 547.697,278.204Z" style="fill:white;"/>
        <path d="M542.853,270.094C542.377,269.823 541.772,269.983 541.496,270.448L538.696,275.843L529.086,294.36C528.815,294.832 528.927,295.538 529.45,295.693C530.09,295.878 530.53,295.8 530.806,295.334L543.215,271.422C543.492,270.958 543.327,270.361 542.853,270.094Z" style="fill:white;"/>
    </g>
</svg>
