<?xml version="1.0" encoding="UTF-8" standalone="no"?>
<!DOCTYPE svg PUBLIC "-//W3C//DTD SVG 1.1//EN" "http://www.w3.org/Graphics/SVG/1.1/DTD/svg11.dtd">
<svg width="100%" height="100%" viewBox="0 0 251 38" version="1.1" xmlns="http://www.w3.org/2000/svg" xmlns:xlink="http://www.w3.org/1999/xlink" xml:space="preserve" style="fill-rule:evenodd;clip-rule:evenodd;stroke-linejoin:round;stroke-miterlimit:1.41421;">
    <g transform="matrix(1,0,0,1,-30,-260.737)">
        <path d="M153.949,274.764L156.78,274.764L153.663,292.466L150.832,292.466L153.949,274.764ZM156.457,268.364C157.46,268.364 158.141,269.045 158.141,269.964C158.141,271.121 157.03,272.074 155.812,272.074C154.844,272.074 154.2,271.393 154.2,270.474C154.2,269.317 155.275,268.364 156.457,268.364Z" style="fill:rgb(1,179,227);fill-rule:nonzero;"/>
        <path d="M175.374,281.402L173.439,292.466L170.609,292.466L172.58,281.3C173.081,278.475 171.505,276.773 168.961,276.773C166.095,276.773 163.766,278.781 163.264,281.709L161.365,292.466L158.534,292.466L161.651,274.764L164.445,274.764L163.98,277.317C165.162,275.717 167.491,274.321 170.07,274.321C174.406,274.321 176.09,277.385 175.374,281.402Z" style="fill:rgb(1,179,227);fill-rule:nonzero;"/>
        <path d="M49.459,274.114L46.589,274.114L47.133,270.799L50.003,270.799L50.25,269.463C51.438,262.981 55.545,260.902 59.702,260.902C60.543,260.902 61.335,261.001 61.335,261.001L60.791,264.416C60.791,264.416 60.147,264.317 59.554,264.317C56.635,264.317 54.853,265.9 54.21,269.463L53.962,270.799L59.455,270.799L58.911,274.114L53.418,274.114L49.657,296.531L45.699,296.531L49.459,274.114Z" style="fill:rgb(1,179,227);fill-rule:nonzero;"/>
        <path d="M74.747,274.064C69.304,274.064 66.483,278.122 65.444,284.208L63.366,296.53L59.456,296.53L63.761,270.798L67.621,270.798L66.879,275.103C68.215,272.53 71.481,270.155 75.39,270.155L74.747,274.064Z" style="fill:rgb(1,179,227);fill-rule:nonzero;"/>
        <path d="M90.979,270.155C97.907,270.155 102.36,275.004 102.36,281.635C102.36,290.344 95.037,297.173 86.426,297.173C79.548,297.173 75.045,292.373 75.045,285.742C75.045,276.935 82.468,270.155 90.979,270.155ZM87.021,293.611C93.256,293.611 98.353,288.564 98.353,282.081C98.353,277.281 95.235,273.718 90.336,273.718C84.101,273.718 79.103,278.864 79.103,285.297C79.103,290.147 82.171,293.611 87.021,293.611Z" style="fill:rgb(1,179,227);fill-rule:nonzero;"/>
        <path d="M128.244,280.448L125.572,296.531L121.663,296.531L124.385,280.3C125.078,276.193 122.901,273.719 119.387,273.719C115.429,273.719 112.212,276.638 111.519,280.894L108.896,296.531L104.986,296.531L109.291,270.799L113.151,270.799L112.508,274.51C114.141,272.184 117.357,270.156 120.92,270.156C126.908,270.155 129.233,274.609 128.244,280.448Z" style="fill:rgb(1,179,227);fill-rule:nonzero;"/>
        <path d="M137.747,265.405L141.557,265.405L140.617,270.799L146.259,270.799L145.715,274.114L140.074,274.114L137.847,287.376C137.055,292.176 138.292,293.314 141.41,293.314C141.905,293.314 142.697,293.215 142.697,293.215L142.103,296.728C142.103,296.728 141.064,296.876 139.728,296.876C135.027,296.876 132.949,294.006 133.889,288.216L136.165,274.113L133.146,274.113L133.69,270.798L136.808,270.798L137.747,265.405Z" style="fill:rgb(1,179,227);fill-rule:nonzero;"/>
        <path d="M182.205,287.477L184.94,271.018L188.941,271.018L186.155,287.629C185.446,291.833 187.725,294.365 191.27,294.365C195.321,294.365 198.613,291.377 199.322,287.021L202.006,271.018L206.058,271.018L201.652,297.353L197.651,297.353L198.31,293.555C196.689,295.935 193.347,298.012 189.751,298.012C183.623,298.01 181.192,293.453 182.205,287.477Z" style="fill:rgb(1,179,227);fill-rule:nonzero;"/>
        <path d="M232.391,297.352L228.492,297.352L229.201,293.199C228.39,294.161 224.997,298.01 219.275,298.01C212.641,298.01 208.488,293.301 208.488,286.565C208.488,277.449 214.97,270.359 223.529,270.359C228.999,270.359 231.531,273.904 232.037,275.272L234.468,260.737L238.52,260.737L232.391,297.352ZM223.478,274.005C217.603,274.005 212.64,279.221 212.64,286.109C212.64,291.123 215.628,294.415 220.084,294.415C226.364,294.415 230.922,288.794 230.922,282.362C230.922,277.095 227.782,274.005 223.478,274.005Z" style="fill:rgb(1,179,227);fill-rule:nonzero;"/>
        <path d="M243.682,271.017L247.683,271.017L243.277,297.352L239.276,297.352L243.682,271.017ZM247.227,261.496C248.645,261.496 249.607,262.509 249.607,263.876C249.607,265.598 248.037,267.016 246.315,267.016C244.947,267.016 244.036,266.003 244.036,264.636C244.036,262.914 245.556,261.496 247.227,261.496Z" style="fill:rgb(1,179,227);fill-rule:nonzero;"/>
        <path d="M40.612,287.14L33.465,281.364L40.612,275.583C41.15,275.052 41.15,274.196 40.612,273.667C40.068,273.141 39.187,273.141 38.649,273.667L30.399,280.337C30.11,280.618 29.982,280.994 30.002,281.364C29.982,281.735 30.11,282.104 30.399,282.385L38.649,289.056C39.187,289.587 40.067,289.587 40.612,289.056C41.149,288.524 41.149,287.671 40.612,287.14Z" style="fill:rgb(1,179,227);"/>
        <path d="M270.281,277.199L277.377,283.039L270.179,288.757C269.637,289.283 269.628,290.138 270.161,290.672C270.701,291.203 271.582,291.211 272.124,290.689L280.433,284.094C280.724,283.815 280.855,283.441 280.839,283.07C280.862,282.699 280.738,282.329 280.451,282.045L272.261,275.301C271.728,274.766 270.847,274.758 270.298,275.284C269.756,275.81 269.749,276.664 270.281,277.199Z" style="fill:rgb(1,179,227);"/>
        <path d="M265.437,269.09C264.961,268.819 264.355,268.978 264.08,269.444L261.28,274.839L251.669,293.356C251.398,293.828 251.51,294.534 252.033,294.689C252.673,294.873 253.114,294.796 253.39,294.33L265.8,270.418C266.076,269.953 265.911,269.357 265.437,269.09Z" style="fill:rgb(1,179,227);"/>
    </g>
</svg>
