<?xml version="1.0" encoding="UTF-8" standalone="no"?>
<!DOCTYPE svg PUBLIC "-//W3C//DTD SVG 1.1//EN" "http://www.w3.org/Graphics/SVG/1.1/DTD/svg11.dtd">
<svg width="100%" height="100%" viewBox="0 0 70 106" version="1.1" xmlns="http://www.w3.org/2000/svg" xmlns:xlink="http://www.w3.org/1999/xlink" xml:space="preserve" style="fill-rule:evenodd;clip-rule:evenodd;stroke-linejoin:round;stroke-miterlimit:1.41421;">
    <g transform="matrix(1,0,0,1,-339.126,-344.725)">
        <g>
            <path d="M406.021,379.951C404.652,379.951 403.541,381.061 403.541,382.431L403.541,397.925C403.541,414.318 390.205,427.653 373.813,427.653C357.421,427.653 344.085,414.317 344.085,397.925L344.085,382.43C344.085,381.06 342.976,379.951 341.605,379.951C340.236,379.951 339.126,381.061 339.126,382.43L339.126,397.925C339.126,416.218 353.361,431.246 371.334,432.523L371.334,445.395L358.507,445.395C357.138,445.395 356.028,446.505 356.028,447.874C356.028,449.243 357.137,450.353 358.507,450.353L389.119,450.353C390.489,450.353 391.599,449.243 391.599,447.874C391.599,446.505 390.489,445.395 389.119,445.395L376.293,445.395L376.293,432.523C394.267,431.246 408.501,416.218 408.501,397.925L408.501,382.43C408.501,381.062 407.391,379.951 406.021,379.951Z" style="fill:white;fill-rule:nonzero;"/>
            <path d="M375.465,344.725L372.161,344.725C360.825,344.725 351.601,353.948 351.601,365.284L351.601,399.578C351.601,410.915 360.825,420.138 372.161,420.138L375.465,420.138C386.803,420.138 396.026,410.915 396.026,399.578L396.026,365.284C396.025,353.947 386.803,344.725 375.465,344.725ZM391.066,371.721L382.076,371.721C380.707,371.721 379.597,372.831 379.597,374.201C379.597,375.57 380.707,376.68 382.076,376.68L391.066,376.68L391.066,383.583L382.076,383.583C380.707,383.583 379.597,384.693 379.597,386.062C379.597,387.431 380.707,388.541 382.076,388.541L391.066,388.541L391.066,395.444L382.076,395.444C380.707,395.444 379.597,396.554 379.597,397.923C379.597,399.293 380.707,400.403 382.076,400.403L391.043,400.403C390.612,408.622 383.791,415.175 375.465,415.175L372.161,415.175C363.837,415.175 357.015,408.622 356.584,400.403L365.551,400.403C366.921,400.403 368.031,399.293 368.031,397.923C368.031,396.554 366.921,395.444 365.551,395.444L356.563,395.444L356.563,388.541L365.551,388.541C366.921,388.541 368.031,387.431 368.031,386.062C368.031,384.693 366.921,383.583 365.551,383.583L356.563,383.583L356.563,376.68L365.551,376.68C366.921,376.68 368.031,375.57 368.031,374.201C368.031,372.831 366.921,371.721 365.551,371.721L356.563,371.721L356.563,365.284C356.563,359.102 360.177,353.748 365.404,351.226L365.404,358.237C365.404,359.606 366.512,360.716 367.883,360.716C369.252,360.716 370.363,359.606 370.363,358.237L370.363,349.791C370.953,349.723 376.675,349.723 377.265,349.791L377.265,358.237C377.265,359.606 378.375,360.716 379.745,360.716C381.114,360.716 382.224,359.606 382.224,358.237L382.224,351.226C387.45,353.748 391.065,359.102 391.065,365.284L391.065,371.721L391.066,371.721Z" style="fill:white;fill-rule:nonzero;"/>
        </g>
    </g>
</svg>
