<?xml version="1.0" encoding="UTF-8" standalone="no"?>
<!DOCTYPE svg PUBLIC "-//W3C//DTD SVG 1.1//EN" "http://www.w3.org/Graphics/SVG/1.1/DTD/svg11.dtd">
<svg width="100%" height="100%" viewBox="0 0 59 88" version="1.1" xmlns="http://www.w3.org/2000/svg" xmlns:xlink="http://www.w3.org/1999/xlink" xml:space="preserve" style="fill-rule:evenodd;clip-rule:evenodd;stroke-linejoin:round;stroke-miterlimit:1.41421;">
    <g transform="matrix(1,0,0,1,-452.762,-348.179)">
        <g transform="matrix(1,0,0,1,1,1)">
            <path d="M486.771,405.797C482.537,405.797 479.28,401.564 479.28,397.656L479.28,379.745C479.28,375.837 482.211,371.604 486.445,371.604C490.678,371.604 493.935,375.837 493.935,379.745L493.935,397.656C494.098,401.563 491.005,405.797 486.771,405.797ZM482.7,379.745L482.7,397.656C482.7,399.935 484.653,402.541 486.933,402.541C489.213,402.541 490.84,399.936 490.84,397.656L490.84,379.745C490.84,377.465 488.886,374.86 486.607,374.86C484.328,374.86 482.7,377.465 482.7,379.745Z" style="fill:white;fill-rule:nonzero;"/>
        </g>
        <g transform="matrix(1,0,0,1,1,1)">
            <path d="M464.789,407.425C464.301,407.425 463.812,407.262 463.486,406.774C462.835,406.123 462.998,404.982 463.649,404.494C470.813,398.47 473.255,395.213 474.069,393.422C474.884,391.631 473.908,388.375 472.116,387.398C470.488,386.421 469.022,388.049 468.045,389.515C466.58,391.632 463.975,395.54 459.09,398.796C458.276,399.284 457.298,399.122 456.81,398.308C456.322,397.494 456.485,396.517 457.298,396.028C461.694,392.934 464.137,389.352 465.44,387.561C469.023,382.187 472.768,383.816 473.908,384.467C477.165,386.421 478.793,391.305 477.165,394.725C475.862,397.656 471.954,401.726 465.929,406.937C465.604,407.263 465.114,407.425 464.789,407.425Z" style="fill:white;fill-rule:nonzero;"/>
        </g>
        <g transform="matrix(1,0,0,1,1,1)">
            <path d="M494.098,435.105L464.789,435.105C461.207,435.105 458.275,432.175 458.275,428.593L458.275,422.732C456.484,421.102 451.762,415.892 451.762,409.053C451.762,408.075 452.413,407.425 453.39,407.425C454.367,407.425 455.018,408.076 455.018,409.053C455.018,415.892 460.88,420.776 461.043,420.776C461.368,421.102 461.531,421.591 461.531,422.079L461.531,428.593C461.531,430.384 462.996,431.849 464.788,431.849L494.097,431.849C495.888,431.849 497.354,430.384 497.354,428.593L497.354,422.079C497.354,421.753 497.516,421.428 497.679,421.101C502.239,414.914 502.239,414.914 502.239,402.539L502.239,399.283L502.239,399.12L504.03,384.466C504.193,383.652 505.008,383.001 505.821,383.001C506.635,383.164 507.287,383.978 507.287,384.792L505.496,399.446L505.496,402.54C505.496,415.241 505.496,416.056 500.611,422.732L500.611,428.593C500.611,432.176 497.681,435.105 494.098,435.105Z" style="fill:white;fill-rule:nonzero;"/>
        </g>
        <g transform="matrix(1,0,0,1,1,1)">
            <path d="M453.391,410.682C452.414,410.682 451.763,410.03 451.763,409.054C451.763,401.89 452.251,398.796 456.485,396.679L453.391,355.646C453.229,353.529 454.042,351.25 455.671,349.621C457.136,347.993 458.927,347.179 460.718,347.179C465.114,347.179 466.58,351.25 467.069,352.553C467.557,353.693 467.883,355.158 468.047,356.786L470.489,373.557C471.791,372.254 473.42,371.603 475.048,371.603C477.49,371.603 479.444,373.068 480.91,374.86C482.212,373.068 484.166,371.603 486.608,371.603C488.725,371.603 490.516,372.743 491.819,374.208L495.727,359.716C497.518,353.366 500.775,352.063 503.054,352.063C505.496,352.063 507.45,352.714 508.753,354.18C510.055,355.645 510.544,357.763 510.381,360.368L508.753,373.068C508.59,373.882 507.775,374.533 506.962,374.533C506.148,374.37 505.496,373.556 505.496,372.742L507.124,360.041C507.287,358.413 506.962,357.11 506.311,356.459C505.659,355.808 504.682,355.482 503.054,355.482C500.775,355.482 499.309,358.901 498.821,360.856L493.936,378.767C493.773,379.418 493.122,379.907 492.307,379.907L491.982,379.907C491.168,379.907 490.679,379.419 490.353,378.767C489.865,376.975 488.237,375.022 486.283,375.022C484.492,375.022 483.027,376.976 482.538,378.767C482.376,379.418 481.724,380.069 480.91,380.069L480.422,380.069C479.608,380.069 479.119,379.581 478.793,378.929C478.305,377.138 476.677,375.184 474.723,375.184C472.932,375.184 471.467,377.138 470.978,378.929C470.815,379.58 470.164,380.232 469.35,380.232L469.675,380.232C468.861,380.232 468.209,379.581 468.047,378.767L464.952,357.599C464.79,355.808 464.464,354.668 464.139,353.691C462.998,350.76 461.86,350.434 460.719,350.434C459.906,350.434 458.928,350.923 458.115,351.737C457.137,352.877 456.486,354.179 456.649,355.482L459.906,397.492C459.906,398.143 459.58,398.794 458.928,399.12C455.509,400.585 455.021,401.4 455.021,409.053C455.02,410.03 454.205,410.682 453.391,410.682Z" style="fill:white;fill-rule:nonzero;"/>
        </g>
        <g transform="matrix(1,0,0,1,1,1)">
            <path d="M507.938,379.093C507.938,378.116 507.287,377.465 506.31,377.465C505.333,377.465 504.681,378.116 504.681,379.093C504.681,380.07 505.333,380.721 506.31,380.721C507.287,380.721 507.938,380.07 507.938,379.093" style="fill:white;fill-rule:nonzero;"/>
        </g>
        <g transform="matrix(1,0,0,1,1,1)">
            <path d="M475.373,405.797C472.931,405.797 470.488,404.169 469.022,401.564C468.697,400.913 468.697,400.099 469.347,399.61C471.789,397.168 473.418,394.888 474.232,393.422C474.884,391.957 474.395,389.351 472.93,387.886C471.789,386.746 470.65,387.235 470.325,387.398C469.836,387.723 469.185,387.561 468.697,387.398C468.208,387.072 467.882,386.584 467.882,385.933L467.882,379.745C467.882,375.837 470.814,371.603 475.047,371.603C479.28,371.603 482.537,375.836 482.537,379.745L482.537,397.656C482.7,401.563 479.606,405.797 475.373,405.797ZM472.604,401.075C473.418,402.052 474.396,402.54 475.373,402.54C477.652,402.54 479.28,399.935 479.28,397.655L479.28,379.744C479.28,377.464 477.326,374.859 475.047,374.859C472.931,374.859 471.139,377.464 471.139,379.744L471.139,383.977C472.605,383.977 473.909,384.466 475.047,385.605C477.489,388.047 478.304,391.956 477.001,394.886C476.35,396.516 474.885,398.633 472.604,401.075Z" style="fill:white;fill-rule:nonzero;"/>
        </g>
    </g>
</svg>
