<?xml version="1.0" encoding="UTF-8" standalone="no"?>
<!DOCTYPE svg PUBLIC "-//W3C//DTD SVG 1.1//EN" "http://www.w3.org/Graphics/SVG/1.1/DTD/svg11.dtd">
<svg width="100%" height="100%" viewBox="0 0 59 59" version="1.1" xmlns="http://www.w3.org/2000/svg" xmlns:xlink="http://www.w3.org/1999/xlink" xml:space="preserve" style="fill-rule:evenodd;clip-rule:evenodd;stroke-linejoin:round;stroke-miterlimit:1.41421;">
    <g transform="matrix(1,0,0,1,-273.869,-510.067)">
        <path d="M331.576,540.34C330.43,537.774 327.416,536.62 324.849,537.768L322.4,538.866L316.118,524.828L318.568,523.733C321.136,522.583 322.286,519.572 321.136,517.005C319.99,514.437 316.979,513.284 314.41,514.435L311.96,515.532L310.865,513.079C309.718,510.513 306.706,509.364 304.139,510.513C301.571,511.659 300.422,514.669 301.568,517.24L302.665,519.69L288.627,525.969L287.532,523.518C286.383,520.948 283.373,519.803 280.805,520.948C278.238,522.096 277.09,525.107 278.236,527.675L279.332,530.125L276.883,531.223C274.316,532.371 273.166,535.377 274.315,537.947C275.46,540.513 278.475,541.665 281.041,540.516L283.492,539.419L289.767,553.458L287.317,554.555C284.749,555.703 283.602,558.717 284.748,561.283C285.897,563.849 288.907,565.001 291.475,563.854L293.924,562.757L295.019,565.208C296.167,567.776 299.179,568.926 301.746,567.776C304.311,566.63 305.462,563.618 304.313,561.051L303.22,558.6L317.259,552.324L318.353,554.764C319.502,557.338 322.511,558.489 325.078,557.339C327.648,556.194 328.799,553.183 327.65,550.613L326.554,548.165L329,547.064C331.576,545.915 332.725,542.906 331.576,540.34ZM299.065,549.301L292.784,535.26L306.825,528.983L313.103,543.022L299.065,549.301Z" style="fill:white;fill-rule:nonzero;"/>
    </g>
</svg>
