<?xml version="1.0" encoding="UTF-8" standalone="no"?>
<!DOCTYPE svg PUBLIC "-//W3C//DTD SVG 1.1//EN" "http://www.w3.org/Graphics/SVG/1.1/DTD/svg11.dtd">
<svg width="100%" height="100%" viewBox="0 0 65 54" version="1.1" xmlns="http://www.w3.org/2000/svg" xmlns:xlink="http://www.w3.org/1999/xlink" xml:space="preserve" style="fill-rule:evenodd;clip-rule:evenodd;stroke-linejoin:round;stroke-miterlimit:1.41421;">
    <g transform="matrix(1,0,0,1,-167.356,-514.894)">
        <path d="M230.663,521.119C229.235,521.752 227.751,522.253 226.227,522.614C227.905,521.02 229.166,519.026 229.878,516.801C230.082,516.165 229.391,515.615 228.817,515.955C226.698,517.212 224.418,518.154 222.036,518.758C221.898,518.792 221.755,518.81 221.612,518.81C221.179,518.81 220.757,518.65 220.425,518.357C217.891,516.124 214.632,514.894 211.249,514.894C209.785,514.894 208.307,515.122 206.855,515.572C202.358,516.967 198.888,520.676 197.8,525.253C197.392,526.969 197.28,528.688 197.47,530.36C197.492,530.551 197.401,530.686 197.345,530.749C197.246,530.858 197.106,530.923 196.963,530.923C196.946,530.923 196.93,530.922 196.913,530.92C187.07,530.005 178.193,525.264 171.919,517.567C171.598,517.173 170.985,517.222 170.731,517.659C169.501,519.767 168.852,522.179 168.852,524.632C168.852,528.392 170.362,531.935 172.987,534.518C171.883,534.255 170.815,533.844 169.823,533.294C169.344,533.026 168.753,533.369 168.746,533.918C168.678,539.503 171.948,544.474 176.846,546.711C176.748,546.714 176.648,546.715 176.55,546.715C175.773,546.715 174.987,546.64 174.214,546.492C173.674,546.388 173.219,546.901 173.386,547.426C174.977,552.39 179.25,556.048 184.365,556.881C180.12,559.73 175.177,561.234 170.032,561.234L168.428,561.232C167.934,561.232 167.516,561.553 167.39,562.033C167.265,562.504 167.495,563.001 167.915,563.247C173.713,566.622 180.326,568.405 187.042,568.405C192.921,568.405 198.42,567.237 203.388,564.936C207.941,562.827 211.965,559.812 215.347,555.973C218.498,552.399 220.962,548.273 222.67,543.708C224.298,539.357 225.159,534.717 225.159,530.285L225.159,530.073C225.159,529.362 225.481,528.692 226.042,528.238C228.173,526.508 230.028,524.47 231.556,522.184C231.964,521.581 231.328,520.824 230.663,521.119Z" style="fill:white;fill-rule:nonzero;"/>
    </g>
</svg>
